# xmcd CD database file
#
# Track frame offsets:
#	150
#	78686
#	127803
#	135223
#	160677
#	166015
#	191284
#	193651
#	247318
#	268579
#	271674
#	324139
#
# Disc length: 4531 seconds
#
# Revision: 0
# Processed by: cddbd v1.5.2PL0 Copyright (c) Steve Scherf et al.
# Submitted via: CDex 1.51
#
DISCID=9211b10c
DTITLE=Andrey Klimkovsky - Parade of Planets - CD2
DYEAR=2005
DGENRE=New Age
TTITLE0=Twilight (Long version)
TTITLE1=solitaryFlight
TTITLE2=Tau-Morphing
TTITLE3=Fire of the Glow over a Sea
TTITLE4=IntroTrance
TTITLE5=InterGalactic Trance
TTITLE6=OutroTrance
TTITLE7=Emptiness
TTITLE8=Lonely Guitar in Night
TTITLE9=BreakPoint
TTITLE10=Astral Dance of Sun
TTITLE11=Radio-Target (Studio)
EXTD=YEAR: 2005
EXTT0=
EXTT1=
EXTT2=
EXTT3=
EXTT4=
EXTT5=
EXTT6=
EXTT7=
EXTT8=
EXTT9=
EXTT10=
EXTT11=
PLAYORDER=
